<svg width="32" height="32" viewBox="0 0 32 32" fill="none" xmlns="http://www.w3.org/2000/svg">
    <path fill-rule="evenodd" clip-rule="evenodd" d="M13.4128 3.96837C13.2463 3.13488 14.3768 2.66663 15.5555 2.66663C16.7343 2.66663 17.8647 3.13488 18.6982 3.96837C19.5317 4.80187 20 5.93233 20 7.11107V16C20 17.1787 19.5317 18.3092 18.6982 19.1427C17.8647 19.9762 16.7343 20.4444 15.5555 20.4444C14.3768 20.4444 13.2463 19.9762 12.4128 19.1427C11.5793 18.3092 11.1111 17.1787 11.1111 16V7.11107C11.1111 5.93233 11.5793 4.80187 12.4128 3.96837ZM15.5555 4.88885C14.9662 4.88885 14.4009 5.12297 13.9842 5.53972C13.5674 5.95647 13.3333 6.5217 13.3333 7.11107V16C13.3333 16.5893 13.5674 17.1546 13.9842 17.5713C14.4009 17.9881 14.9662 18.2222 15.5555 18.2222C16.1449 18.2222 16.7101 17.9881 17.1269 17.5713C17.5436 17.1546 17.7777 16.5893 17.7777 16V7.11107C17.7777 6.5217 17.5436 5.95647 17.1269 5.53972C16.7101 5.12297 16.1449 4.88885 15.5555 4.88885Z" fill="#F5F9FF" fill-opacity="0.95"/>
    <path fill-rule="evenodd" clip-rule="evenodd" d="M7.77774 12.6666C8.39139 12.6666 8.88885 13.1641 8.88885 13.7777V16C8.88885 17.7681 9.59123 19.4638 10.8415 20.714C12.0917 21.9642 13.7874 22.6666 15.5555 22.6666C17.3236 22.6666 19.0193 21.9642 20.2696 20.714C21.5198 19.4638 22.2222 17.7681 22.2222 16V13.7777C22.2222 13.1641 22.7196 12.6666 23.3333 12.6666C23.9469 12.6666 24.4444 13.1641 24.4444 13.7777V16C24.4444 18.3574 23.5079 20.6184 21.8409 22.2854C20.1739 23.9523 17.913 24.8889 15.5555 24.8889C13.198 24.8889 10.9371 23.9523 9.27012 22.2854C7.60313 20.6184 6.66663 18.3574 6.66663 16V13.7777C6.66663 13.1641 7.16409 12.6666 7.77774 12.6666Z" fill="#F5F9FF" fill-opacity="0.95"/>
    <path fill-rule="evenodd" clip-rule="evenodd" d="M15.5554 22.6666C16.1691 22.6666 16.6666 23.1641 16.6666 23.7777V28.2222C16.6666 28.8358 16.1691 29.3333 15.5554 29.3333C14.9418 29.3333 14.4443 28.8358 14.4443 28.2222V23.7777C14.4443 23.1641 14.9418 22.6666 15.5554 22.6666Z" fill="#F5F9FF" fill-opacity="0.95"/>
    <path fill-rule="evenodd" clip-rule="evenodd" d="M10 28.2221C10 27.6084 10.4975 27.111 11.1111 27.111H20C20.6136 27.111 21.1111 27.6084 21.1111 28.2221C21.1111 28.8357 20.6136 29.3332 20 29.3332H11.1111C10.4975 29.3332 10 28.8357 10 28.2221Z" fill="#F5F9FF" fill-opacity="0.95"/>
</svg>
