<svg width="24" height="24" viewBox="0 0 32 32" fill="none" xmlns="http://www.w3.org/2000/svg">
    <path fill-rule="evenodd" clip-rule="evenodd" d="M2.99169 2.99174C3.42512 2.55832 4.12526 2.55832 4.55869 2.99174L13.3602 11.7933C13.395 11.8207 13.4285 11.8505 13.4606 11.8825L19.1506 17.5726C19.1824 17.6044 19.2118 17.6376 19.2389 17.672L22.0953 20.5284C22.1789 20.5758 22.2576 20.6351 22.3291 20.7066C22.4016 20.7791 22.4623 20.8592 22.5111 20.9441L29.0082 27.4413C29.4416 27.8747 29.4416 28.5748 29.0082 29.0083C28.5748 29.4417 27.8747 29.4417 27.4412 29.0083L21.4779 23.0449C20.3948 23.8946 19.1278 24.485 17.7725 24.763C17.5549 24.8076 17.3362 24.8441 17.1169 24.8723V27.1078H20.4509C21.0621 27.1078 21.5622 27.6079 21.5622 28.2191C21.5622 28.8304 21.0621 29.3305 20.4509 29.3305H16.024C16.0179 29.3306 16.0117 29.3306 16.0055 29.3306C15.9994 29.3306 15.9932 29.3306 15.9871 29.3305H11.5601C10.9489 29.3305 10.4488 28.8415 10.4488 28.2191C10.4488 27.6079 10.9489 27.1078 11.5601 27.1078H14.8942V24.8783C14.1093 24.7816 13.3357 24.5798 12.5937 24.274C10.96 23.5961 9.55973 22.4514 8.58175 20.9733C7.61488 19.4952 7.10366 17.7615 7.11477 15.9945V13.7718C7.11477 13.1606 7.61488 12.6605 8.22612 12.6605C8.83736 12.6605 9.33746 13.1606 9.33746 13.7718V16.0056C9.32635 17.3392 9.71532 18.6395 10.4488 19.7397C11.1823 20.84 12.2381 21.7068 13.4605 22.218C14.1706 22.5123 14.9175 22.6777 15.6715 22.7142C15.777 22.6807 15.8893 22.6626 16.0055 22.6626C16.1205 22.6626 16.2315 22.6803 16.336 22.713C16.6716 22.6957 17.0068 22.6529 17.3391 22.5848C18.2654 22.3948 19.1353 22.013 19.8965 21.4636L18.2609 19.8279C17.8342 20.0783 17.3659 20.2561 16.8724 20.351C16.5834 20.4177 16.2945 20.4399 16.0055 20.4399C15.4276 20.4399 14.8497 20.3287 14.3052 20.0954C13.4939 19.762 12.8049 19.1952 12.3159 18.4617C11.8158 17.7393 11.5602 16.8836 11.5602 16.0056V13.1272L2.99169 4.55873C2.55827 4.12531 2.55827 3.42516 2.99169 2.99174ZM16.5742 18.1413L13.7944 15.3615L13.7829 15.3499V15.9945C13.7829 16.439 13.9162 16.8614 14.1607 17.2281C14.4052 17.5948 14.7497 17.8727 15.1609 18.0505C15.561 18.2172 16.0055 18.2617 16.439 18.1727L16.439 18.1727C16.481 18.1622 16.5229 18.1518 16.5742 18.1413ZM19.3396 14.1497C18.7283 14.1497 18.2282 13.6496 18.2282 13.0383V7.10377C18.2282 6.5481 18.0282 6.02577 17.6503 5.61457C17.2836 5.20337 16.7724 4.94777 16.2278 4.8922C15.6832 4.83663 15.1276 4.98111 14.683 5.31451C14.2385 5.6368 13.9384 6.12579 13.8273 6.65923C13.7051 7.25936 13.116 7.64833 12.5159 7.52608C11.9158 7.40383 11.5268 6.82593 11.6491 6.22581C11.8713 5.14781 12.4826 4.19205 13.3717 3.53636C14.2607 2.88067 15.361 2.58061 16.4612 2.69174C17.5614 2.80287 18.5727 3.31409 19.3173 4.13649C20.0397 4.94777 20.4509 6.00354 20.4509 7.11488V13.0495C20.4509 13.6607 19.9508 14.1497 19.3396 14.1497ZM24.8963 13.7718C24.8963 13.1606 24.3962 12.6605 23.7849 12.6605C23.1737 12.6605 22.6736 13.1606 22.6736 13.7718V15.9945C22.6736 16.3946 22.6402 16.7836 22.5624 17.1725C22.4513 17.7726 22.8625 18.3505 23.4626 18.4617C24.0627 18.5728 24.6406 18.1616 24.7518 17.5615C24.8518 17.0392 24.8963 16.5168 24.8963 15.9945V13.7718Z" fill="#F5F9FF" fill-opacity="0.95"/>
</svg>
