<svg width="24" height="24" viewBox="0 0 24 24" fill="none" xmlns="http://www.w3.org/2000/svg">
<path fill-rule="evenodd" clip-rule="evenodd" d="M12.2428 2.8125C10.9573 2.8125 9.7245 3.32316 8.81552 4.23213C7.90655 5.14111 7.39589 6.37395 7.39589 7.65943C7.39589 8.94492 7.90655 10.1778 8.81552 11.0867C9.7245 11.9957 10.9573 12.5064 12.2428 12.5064C13.5283 12.5064 14.7611 11.9957 15.6701 11.0867C16.5791 10.1778 17.0898 8.94492 17.0898 7.65943C17.0898 6.37395 16.5791 5.14111 15.6701 4.23213C14.7611 3.32316 13.5283 2.8125 12.2428 2.8125ZM9.91226 5.32887C10.5304 4.71077 11.3687 4.36352 12.2428 4.36352C13.117 4.36352 13.9553 4.71077 14.5734 5.32887C15.1915 5.94697 15.5387 6.7853 15.5387 7.65943C15.5387 8.53357 15.1915 9.3719 14.5734 9.99C13.9553 10.6081 13.117 10.9554 12.2428 10.9554C11.3687 10.9554 10.5304 10.6081 9.91226 9.99C9.29416 9.3719 8.94691 8.53357 8.94691 7.65943C8.94691 6.7853 9.29416 5.94697 9.91226 5.32887ZM8.11936 16.9135C9.21297 15.8199 10.6962 15.2055 12.2428 15.2055C13.7894 15.2055 15.2727 15.8199 16.3663 16.9135C17.4599 18.0071 18.0743 19.4904 18.0743 21.037C18.0743 21.4653 18.4215 21.8125 18.8498 21.8125C19.2781 21.8125 19.6253 21.4653 19.6253 21.037C19.6253 19.079 18.8475 17.2013 17.4631 15.8168C16.0786 14.4323 14.2008 13.6545 12.2428 13.6545C10.2849 13.6545 8.40711 14.4323 7.02262 15.8168C5.63813 17.2013 4.86034 19.079 4.86034 21.037C4.86034 21.4653 5.20754 21.8125 5.63585 21.8125C6.06415 21.8125 6.41136 21.4653 6.41136 21.037C6.41136 19.4904 7.02574 18.0071 8.11936 16.9135Z" fill="white"/>
</svg>
